HIERARCHY
ROOT Hips
{
  OFFSET 2.21136 48.6802 -74.5952
  CHANNELS 6 Xposition Yposition Zposition Zrotation Xrotation Yrotation
  JOINT ToSpine
  {
    OFFSET -2.69724 7.43032 -0.144315
    CHANNELS 3 Zrotation Xrotation Yrotation
    JOINT Spine
    {
      OFFSET -0.0310711 10.7595 1.96963
      CHANNELS 3 Zrotation Xrotation Yrotation
      JOINT Spine1
      {
        OFFSET 13.1342 3.43533 0.764692
        CHANNELS 3 Zrotation Xrotation Yrotation
        JOINT Neck
        {
          OFFSET 29.8703 7.82586 -0.130764
          CHANNELS 3 Zrotation Xrotation Yrotation
          JOINT Head
          {
            OFFSET 9.52751 0.295786 -0.907742
            CHANNELS 3 Zrotation Xrotation Yrotation
            End Site
            {
              OFFSET 16.4037 0.713936 2.7358
            }
          }
        }
        JOINT LeftShoulder
        {
          OFFSET 27.5574 4.95586 2.47156
          CHANNELS 3 Zrotation Xrotation Yrotation
          JOINT LeftArm
          {
            OFFSET 1.20734 -0.998971 20.1238
            CHANNELS 3 Zrotation Xrotation Yrotation
            JOINT LeftForeArm
            {
              OFFSET 26.8049 -0.0536703 -0.155908
              CHANNELS 3 Zrotation Xrotation Yrotation
              JOINT LeftHand
              {
                OFFSET 26.6817 0 0.320147
                CHANNELS 3 Zrotation Xrotation Yrotation
                End Site
                {
                  OFFSET 18.6119 0 0.382219
                }
              }
            }
          }
        }
        JOINT RightShoulder
        {
          OFFSET 27.5927 4.71444 -2.65209
          CHANNELS 3 Zrotation Xrotation Yrotation
          JOINT RightArm
          {
            OFFSET 2.83739 -1.17114 -18.7564
            CHANNELS 3 Zrotation Xrotation Yrotation
            JOINT RightForeArm
            {
              OFFSET 28.839 -0.0548439 1.22491
              CHANNELS 3 Zrotation Xrotation Yrotation
              JOINT RightHand
              {
                OFFSET 26.5114 0 -0.101894
                CHANNELS 3 Zrotation Xrotation Yrotation
                End Site
                {
                  OFFSET 18.2168 0 0
                }
              }
            }
          }
        }
      }
    }
  }
  JOINT LeftUpLeg
  {
    OFFSET -4.76168 -1.9167 -10.2353
    CHANNELS 3 Zrotation Xrotation Yrotation
    JOINT LeftLeg
    {
      OFFSET 2.55951 -42.0585 -8.02213
      CHANNELS 3 Zrotation Xrotation Yrotation
      JOINT LeftFoot
      {
        OFFSET 3.16357 -42.5282 -3.95426
        CHANNELS 3 Zrotation Xrotation Yrotation
        JOINT LeftToeBase
        {
          OFFSET 0.346054 -6.02161 12.8035
          CHANNELS 3 Zrotation Xrotation Yrotation
          End Site
          {
            OFFSET 0.134235 -1.35082 5.13018
          }
        }
      }
    }
  }
  JOINT RightUpLeg
  {
    OFFSET -4.94151 -1.41743 10.6446
    CHANNELS 3 Zrotation Xrotation Yrotation
    JOINT RightLeg
    {
      OFFSET -2.56294 -42.0364 -7.94377
      CHANNELS 3 Zrotation Xrotation Yrotation
      JOINT RightFoot
      {
        OFFSET -3.0952 -42.555 -4.02241
        CHANNELS 3 Zrotation Xrotation Yrotation
        JOINT RightToeBase
        {
          OFFSET -0.0828122 -6.13587 12.8035
          CHANNELS 3 Zrotation Xrotation Yrotation
          End Site
          {
            OFFSET -0.131328 -1.35082 5.13018
          }
        }
      }
    }
  }
}
MOTION
Frames:	8
Frame Time:	0.0333333
2.33791 48.3083 -74.3713 46.1643 -24.7835 -26.2163 -70.1915 0 88.8779 167.893 45.7204 -68.8433 -10.6028 25.613 6.69576 -153.212 45.3944 163.459 159.614 83.6624 -110.084 0.9196 -10.9779 -25.9638 -90.1753 48.3614 -53.7872 1.51588 2.10008 -37.2742 0.420956 0.000577675 0.358661 -1.69935 10.4831 29.8117 -89.1756 2.37599 84.3276 3.71705 -4.11751 42.7284 0.58676 0.000331037 0.0646655 -10.3282 -7.01739 91.0525 -169.109 39.785 147.242 -6.0003 -5.93254 -0.0912523 42.0249 -44.7918 45.5003 57.967 -16.8002 100.293 170.64 57.4794 -177.345 -11.2046 -14.9676 1.30248 1.97381 -9.86316 -10.2085 
2.3077 48.3875 -74.3878 46.3817 -24.796 -25.9519 -70.1915 0 88.8779 168.068 45.3689 -68.7417 -10.6713 25.6172 6.4404 -152.957 45.1268 163.004 163.987 83.7543 -114.143 0.868814 -11.3048 -25.8941 -90.6852 48.2858 -53.3 1.72512 2.37545 -37.2733 0.420956 0.000577675 0.358661 -1.7398 10.4584 30.2631 -89.1175 2.61267 84.3082 3.5872 -3.97351 42.7461 0.58676 0.000331037 0.0646655 -10.4439 -7.03491 90.8742 -169.124 39.812 147.553 -5.80013 -5.75832 -0.0839096 42.0274 -45.0837 44.8028 57.6579 -16.9953 100.203 170.658 57.5241 -177.48 -11.2848 -15.0679 1.30023 1.95775 -9.68042 -10.0806 
2.28728 48.4452 -74.313 46.4693 -24.7101 -25.5414 -70.1915 0 88.8779 168.174 45.0226 -68.2374 -10.5765 25.5144 5.89273 -153.156 44.7873 163.048 166.244 83.5074 -116.099 0.945833 -10.845 -25.0861 -90.4915 48.6149 -53.4817 1.56696 2.15511 -37.4384 0.420956 0.000577675 0.358661 -1.78139 10.6358 30.3561 -89.193 2.47179 84.5475 3.53244 -3.92084 42.6955 0.58676 0.000331037 0.0646655 -10.3868 -7.00013 90.3971 -169.122 39.7816 147.469 -5.99724 -5.91499 -0.0887535 41.3414 -44.7229 44.4199 57.3833 -17.2964 99.9624 170.621 57.6651 -177.366 -11.2789 -15.081 1.29992 2.01013 -9.98987 -10.6505 
2.22622 48.593 -74.5595 46.6844 -24.9924 -25.2788 -70.1915 0 88.8779 168.609 44.5443 -68.2834 -10.495 25.562 5.68365 -152.913 44.6932 162.73 168.845 83.607 -118.245 0.946507 -10.8369 -25.1747 -90.3075 48.5951 -53.6654 1.43146 1.98082 -37.4496 0.420956 0.000577675 0.358661 -1.74021 10.4784 30.2309 -89.2318 2.4148 84.7399 3.67276 -4.06795 42.7374 0.58676 0.000331037 0.0646655 -10.4544 -6.97683 90.4296 -169.131 39.8087 147.676 -6.18899 -5.56267 -0.027256 41.4093 -44.5922 44.8607 56.9006 -17.5155 99.6809 170.557 58.0424 -177.3 -11.1243 -14.8903 1.30449 1.97571 -10.1008 -10.1313 
2.20908 48.6716 -74.5848 46.9199 -25.2296 -25.0394 -70.1915 0 88.8779 168.982 44.0963 -68.3707 -10.5742 25.6666 5.5126 -151.953 44.4907 161.453 178.92 84.0767 -127.494 0.938124 -10.8956 -25.1098 -90.3153 48.5776 -53.68 1.41101 1.96475 -37.3378 0.420956 0.000577675 0.358661 -1.74574 10.4952 30.2558 -89.489 2.38878 84.7187 3.82617 -4.25774 42.5857 0.58676 0.000331037 0.0646655 -10.6391 -6.89577 90.3042 -169.139 39.7948 147.802 -6.03741 -5.54502 -0.03685 40.8741 -44.4354 44.2497 56.3955 -17.6075 99.4779 170.478 58.1584 -176.899 -11.4031 -14.6443 1.30906 2.02175 -10.5035 -10.6022 
2.22485 48.6853 -74.6273 47.0479 -25.2918 -24.9638 -70.1915 0 88.8779 169.047 43.988 -68.3866 -10.4993 25.6422 5.50943 -151.992 44.5409 161.618 177.122 84.0316 -125.728 0.951975 -10.8008 -25.1681 -90.1718 48.573 -53.8849 1.16179 1.64365 -37.2792 0.420956 0.000577675 0.358661 -1.75621 10.5993 30.1721 -89.547 2.37125 84.5945 3.69261 -4.10789 42.6099 0.58676 0.000331037 0.0646655 -10.8332 -6.93085 90.3122 -169.134 39.8494 147.765 -6.25009 -5.62155 -0.029889 41.4846 -44.7838 44.5342 56.2337 -17.6884 99.4397 170.43 58.2274 -176.666 -11.0589 -14.9561 1.30272 2.04929 -9.89936 -11.1747 
2.21291 48.6696 -74.6261 47.2181 -25.3671 -24.803 -70.1915 0 88.8779 169.237 43.8117 -68.4592 -10.5595 25.7003 5.5155 -151.967 44.5747 161.532 177.338 84.0836 -125.943 0.934661 -10.914 -25.2149 -90.1152 48.5868 -53.9764 1.19359 1.69146 -37.2181 0.420956 0.000577675 0.358661 -1.75329 10.5303 30.2676 -89.5374 2.44889 84.4933 3.738 -4.14311 42.7094 0.58676 0.000331037 0.0646655 -10.9928 -6.85758 90.2249 -169.154 39.8711 148.149 -6.28914 -5.82497 -0.0541956 41.88 -45.2054 44.245 56.0546 -17.7434 99.3608 170.461 58.2263 -176.891 -11.061 -14.943 1.30403 2.01973 -9.83073 -10.8391 
2.20918 48.737 -74.6586 47.3052 -25.5096 -24.682 -70.1915 0 88.8779 169.43 43.5626 -68.4562 -10.5999 25.7457 5.41105 -152.263 44.6074 161.802 177.872 84.1201 -126.722 0.94003 -10.8813 -25.1458 -90.1908 48.7034 -53.9514 1.15549 1.64545 -37.1807 0.420956 0.000577675 0.358661 -1.74123 10.5396 30.1303 -89.4915 2.36526 84.6707 3.64791 -4.0813 42.4534 0.58676 0.000331037 0.0646655 -11.1148 -6.7688 90.1817 -169.139 39.8112 147.822 -6.08224 -5.6491 -0.0469261 41.3618 -44.7567 44.3739 55.8059 -17.8127 99.1896 170.464 58.3638 -176.998 -11.5301 -14.3736 1.3148 2.03299 -10.9411 -10.5393 
